<?xml version="1.0" encoding="UTF-8"?>
<svg width="311px" height="267px" viewBox="0 0 311 267" version="1.1" xmlns="http://www.w3.org/2000/svg" xmlns:xlink="http://www.w3.org/1999/xlink">
    <!-- Generator: Sketch 52.3 (67297) - http://www.bohemiancoding.com/sketch -->
    <title> copy 2</title>
    <desc>Created with Sketch.</desc>
    <defs>
        <linearGradient x1="0%" y1="100%" x2="100%" y2="0%" id="linearGradient-1">
            <stop stop-color="#C7081F" offset="0%"></stop>
            <stop stop-color="#EC5700" offset="100%"></stop>
        </linearGradient>
    </defs>
    <g id="Designs" stroke="none" stroke-width="1" fill="none" fill-rule="evenodd" opacity="1">
        <g id="Main-screen" transform="translate(-685.000000, -677.000000)" fill="url(#linearGradient-1)">
            <path d="M848.136161,940.871094 C846.053561,942.957042 843.5082,944 840.5,944 C837.4918,944 834.946439,942.957042 832.863839,940.871094 L724.569196,836.226562 C723.412197,835.299475 721.821346,833.792979 719.796596,831.707031 C717.771846,829.621083 714.56122,825.825874 710.164621,820.321289 C705.768021,814.816704 701.834281,809.167347 698.363281,803.373047 C694.892282,797.578747 691.797354,790.567749 689.078404,782.339844 C686.359454,774.111938 685,766.115924 685,758.351562 C685,732.856643 692.346839,712.924551 707.040737,698.554687 C721.734634,684.184824 742.039677,677 767.956473,677 C775.129872,677 782.447786,678.245756 789.910435,680.737305 C797.373084,683.228854 804.314979,686.589497 810.736328,690.819336 C817.157677,695.049175 822.682269,699.018211 827.310268,702.726563 C831.938267,706.434914 836.334801,710.374979 840.5,714.546875 C844.665199,710.374979 849.061733,706.434914 853.689732,702.726563 C858.317731,699.018211 863.842323,695.049175 870.263672,690.819336 C876.685021,686.589497 883.626916,683.228854 891.089565,680.737305 C898.552214,678.245756 905.870128,677 913.043527,677 C938.960323,677 959.265366,684.184824 973.959263,698.554687 C988.653161,712.924551 996,732.856643 996,758.351562 C996,783.962368 982.752551,810.036326 956.257254,836.574219 L848.136161,940.871094 Z" id="-copy-2"></path>
        </g>
    </g>
</svg>
